<?xml version="1.0" encoding="UTF-8"?>
<svg version="1.1" viewBox="0 0 32 32" xmlns="http://www.w3.org/2000/svg">
<title>icon 111 search</title>
<desc>Created with Sketch.</desc>
<g fill="none" fill-rule="evenodd">
<g fill="#000">
<path d="m19.427 21.427c-1.3899 0.99036-3.0905 1.5729-4.9271 1.5729-4.6944 0-8.5-3.8056-8.5-8.5 0-4.6944 3.8056-8.5 8.5-8.5 4.6944 0 8.5 3.8056 8.5 8.5 0 1.8367-0.58252 3.5372-1.5729 4.9271l5.5848 5.5848c0.5502 0.5502 0.54561 1.4306-1.991e-4 1.9764l-0.023437 0.023437c-0.54442 0.54442-1.4307 0.5459-1.9764 1.991e-4l-5.5848-5.5848zm-4.9271-0.42712c3.5899 0 6.5-2.9101 6.5-6.5s-2.9101-6.5-6.5-6.5-6.5 2.9101-6.5 6.5 2.9101 6.5 6.5 6.5z"/>
</g>
</g>
</svg>